<?xml version="1.0" standalone="no"?>
<!DOCTYPE svg PUBLIC "-//W3C//DTD SVG 20010904//EN"
 "http://www.w3.org/TR/2001/REC-SVG-20010904/DTD/svg10.dtd">
<svg version="1.0" xmlns="http://www.w3.org/2000/svg"
 width="96.000000pt" height="96.000000pt" viewBox="0 0 96.000000 96.000000"
 preserveAspectRatio="xMidYMid meet">
<metadata>
Created by potrace 1.14, written by Peter Selinger 2001-2017
</metadata>
<g transform="translate(0.000000,96.000000) scale(0.100000,-0.100000)"
fill="#000000" stroke="none">
<path d="M420 842 c-59 -29 -80 -72 -80 -163 0 -46 -4 -79 -10 -79 -5 0 -10 9
-10 20 0 13 -7 20 -20 20 -13 0 -20 7 -20 20 0 13 -7 20 -20 20 -13 0 -20 7
-20 20 0 13 -7 20 -20 20 -13 0 -20 7 -20 20 0 17 -7 20 -45 20 -33 0 -45 -4
-45 -15 0 -8 52 -66 115 -130 112 -113 115 -117 115 -160 0 -49 -8 -56 -29
-26 -14 19 -15 19 -31 -1 -22 -27 -61 -18 -80 18 -13 23 -13 27 5 40 43 32
-35 43 -83 13 -46 -29 -39 -43 90 -171 68 -68 136 -141 152 -162 66 -87 181
-84 236 7 18 29 20 51 20 239 l0 208 65 -65 c63 -62 106 -85 162 -85 58 0 52
11 -85 149 -75 75 -150 154 -166 175 -47 63 -112 81 -176 48z"/>
</g>
</svg>
